<svg width="24" height="24" viewBox="0 0 24 24" fill="none" xmlns="http://www.w3.org/2000/svg">
<path fill-rule="evenodd" clip-rule="evenodd" d="M3.70711 2.29289C3.31658 1.90237 2.68342 1.90237 2.29289 2.29289C1.90237 2.68342 1.90237 3.31658 2.29289 3.70711L5.12723 6.54144C3.63703 7.77727 2.30975 9.44326 1.13182 11.504C0.956079 11.8115 0.956057 12.1889 1.13177 12.4964C3.9072 17.3532 7.51999 20.0002 12 20.0002C13.8654 20.0002 15.6048 19.5369 17.2062 18.6204L20.2929 21.7071C20.6834 22.0976 21.3166 22.0976 21.7071 21.7071C22.0976 21.3166 22.0976 20.6834 21.7071 20.2929L18.1346 16.7203C18.0893 16.6642 18.0389 16.6141 17.9845 16.5703L3.70711 2.29289ZM13.2934 14.7076L9.29236 10.7066C9.10495 11.0982 9 11.5368 9 12C9 13.6568 10.3431 15 12 15C12.4631 15 12.9018 14.895 13.2934 14.7076ZM9.82256 4.22196C10.5385 4.07214 11.2688 3.99765 12.0016 4.00012C16.4808 4.00082 20.093 6.64785 22.8681 11.504C23.0438 11.8114 23.0437 12.1889 22.868 12.4964C22.1914 13.6799 21.467 14.732 20.6914 15.6468C20.5112 15.8592 20.2506 15.9869 19.9723 15.9991C19.694 16.0113 19.4232 15.9068 19.2252 15.7108L9.32395 5.91151C9.0623 5.65256 8.96408 5.27079 9.06828 4.91771C9.17248 4.56464 9.46223 4.29736 9.82256 4.22196Z" fill="#5C5C5C"/>
</svg>
