<svg width="24" height="24" viewBox="0 0 24 24" fill="none" xmlns="http://www.w3.org/2000/svg">
<path fill-rule="evenodd" clip-rule="evenodd" d="M12 4.25C7.63999 4.25 4.09715 6.81857 1.34883 11.6279C1.21706 11.8585 1.21706 12.1415 1.34883 12.3721C4.09715 17.1814 7.63999 19.75 12 19.75C16.36 19.75 19.9028 17.1814 22.6512 12.3721C22.7829 12.1415 22.7829 11.8585 22.6512 11.6279C19.9028 6.81857 16.36 4.25 12 4.25ZM12 9.25C10.4812 9.25 9.25 10.4812 9.25 12C9.25 13.5188 10.4812 14.75 12 14.75C13.5188 14.75 14.75 13.5188 14.75 12C14.75 10.4812 13.5188 9.25 12 9.25Z" fill="#5C5C5C"/>
</svg>
