<svg width="360" height="244" viewBox="0 0 360 244" fill="none" xmlns="http://www.w3.org/2000/svg">
<g clip-path="url(#clip0_2509_173048)">
<path d="M360 0H0V260H360V0Z" fill="#0055B8"/>
<mask id="mask0_2509_173048" style="mask-type:alpha" maskUnits="userSpaceOnUse" x="0" y="0" width="360" height="260">
<path d="M360 0H0V260H360V0Z" fill="#FFCE00"/>
</mask>
<g mask="url(#mask0_2509_173048)">
<path opacity="0.4" d="M36.3449 395.897C41.7222 400.326 47.2719 402.285 51.5666 403.505C62.9794 406.746 75.9484 405.026 87.2284 398.382C90.7866 396.286 94.1606 393.707 97.2317 390.616L199.68 287.361C204.687 283.228 209.628 277.259 216.376 271.41L226.995 261.407L238.771 249.736C260.658 228.064 250.814 191.936 221.196 185.016L28.7381 140.14C-4.76428 132.35 -36.4594 162.462 -27.9369 193.943L-3.70167 282.165L-3.92879 282.299L2.68687 303.656L16.3536 355.388C16.3536 355.388 17.7615 360.872 20.2732 367.877L20.3489 367.832C22.5897 373.516 26.595 383.39 30.3719 389.254L30.2962 389.299C32.1359 392.063 34.2243 394.384 36.3449 395.897Z" fill="#007BE0"/>
<path opacity="0.4" d="M350.853 -76.7819C347.141 -79.8544 343.307 -81.2184 340.339 -82.0683C332.452 -84.3278 323.481 -83.1563 315.671 -78.5748C313.208 -77.1297 310.871 -75.3497 308.742 -73.2149L237.745 -1.90898C234.276 0.943837 230.85 5.06714 226.175 9.10494L218.817 16.0121L210.657 24.0718C195.489 39.037 202.242 64.0522 222.712 68.8842L355.727 100.216C378.882 105.655 400.844 84.8626 394.998 63.0655L378.373 1.97989L378.53 1.88763L373.988 -12.9016L364.616 -48.7202C364.616 -48.7202 363.65 -52.5175 361.924 -57.3682L361.872 -57.3375C360.331 -61.2743 357.576 -68.1126 354.973 -72.1764L355.026 -72.2072C353.758 -74.1223 352.317 -75.7317 350.853 -76.7819Z" fill="#007BE0"/>
<path opacity="0.4" d="M8 87C13.2454 87 17.5 91.4785 17.5 97C17.5 91.4785 21.7546 87 27 87C21.7546 87 17.5 82.5215 17.5 77C17.5 82.5215 13.2454 87 8 87Z" fill="#007BE0"/>
<path opacity="0.4" d="M223 116C228.245 116 232.5 120.479 232.5 126C232.5 120.479 236.755 116 242 116C236.755 116 232.5 111.522 232.5 106C232.5 111.522 228.245 116 223 116Z" fill="#007BE0"/>
<path opacity="0.4" d="M47 81C58.5862 81 68 90.4138 68 102C68 90.4138 77.4138 81 89 81C77.4138 81 68 71.5862 68 60C68 71.5862 58.5862 81 47 81Z" fill="#007BE0"/>
<path opacity="0.4" d="M300 151.5C311.862 151.5 321.5 161.138 321.5 173C321.5 161.138 331.138 151.5 343 151.5C331.138 151.5 321.5 141.862 321.5 130C321.5 141.862 311.862 151.5 300 151.5Z" fill="#007BE0"/>
</g>
</g>
<path d="M0 244C0 232.954 8.95431 224 20 224H340C351.046 224 360 232.954 360 244H0Z" fill="#FFFFFF"/>
<defs>
<clipPath id="clip0_2509_173048">
<rect width="360" height="244" fill="white"/>
</clipPath>
</defs>
</svg>
