<svg width="24" height="24" viewBox="0 0 24 24" fill="none" xmlns="http://www.w3.org/2000/svg">
<path fill-rule="evenodd" clip-rule="evenodd" d="M11.9999 21.6C17.3018 21.6 21.5999 17.3019 21.5999 12C21.5999 6.69806 17.3018 2.39999 11.9999 2.39999C6.69797 2.39999 2.3999 6.69806 2.3999 12C2.3999 17.3019 6.69797 21.6 11.9999 21.6ZM16.4484 10.4485C16.9171 9.97989 16.9171 9.22009 16.4484 8.75147C15.9798 8.28284 15.22 8.28284 14.7514 8.75147L10.7999 12.7029L9.24843 11.1515C8.7798 10.6828 8.02 10.6828 7.55137 11.1515C7.08275 11.6201 7.08275 12.3799 7.55137 12.8485L9.95137 15.2485C10.42 15.7172 11.1798 15.7172 11.6484 15.2485L16.4484 10.4485Z" fill="#09B95A"/>
</svg>
