<svg width="24" height="24" viewBox="0 0 24 24" fill="none" xmlns="http://www.w3.org/2000/svg">
<path fill-rule="evenodd" clip-rule="evenodd" d="M13 3C13 2.44772 12.5523 2 12 2C11.4477 2 11 2.44772 11 3V4.07488C9.96721 4.22372 8.74477 4.61155 7.66572 5.38847C6.15823 6.47386 5.00003 8.27408 5.00003 11V14.5858L3.29292 16.2929C3.00692 16.5789 2.92137 17.009 3.07615 17.3827C3.23093 17.7564 3.59557 18 4.00003 18H8.00003C8.00003 18.66 8.18981 19.6278 8.78849 20.4593C9.42389 21.3418 10.4741 22 12 22C13.5259 22 14.5762 21.3418 15.2116 20.4593C15.8102 19.6278 16 18.66 16 18H20C20.4045 18 20.7691 17.7564 20.9239 17.3827C21.0787 17.009 20.9931 16.5789 20.7071 16.2929L19 14.5858V11C19 9.83998 18.6602 8.1222 17.6116 6.6657C16.6649 5.35082 15.1743 4.30168 13 4.05504V3ZM10.4116 19.2907C10.1102 18.8722 10 18.34 10 18H14C14 18.34 13.8898 18.8722 13.5885 19.2907C13.3239 19.6582 12.8741 20 12 20C11.1259 20 10.6762 19.6582 10.4116 19.2907Z" />
</svg>
