<svg width="24" height="24" viewBox="0 0 24 24" fill="none" xmlns="http://www.w3.org/2000/svg">
<path d="M3 2C2.44772 2 2 2.44772 2 3C2 3.55228 2.44772 4 3 4H4.15287L6.01361 15.1644C6.09397 15.6466 6.51116 16 7 16H18C18.4304 16 18.8126 15.7246 18.9487 15.3162L21.9487 6.31623C22.0503 6.01128 21.9992 5.67606 21.8112 5.41529C21.6233 5.15452 21.3214 5 21 5H6.34713L5.98639 2.8356C5.90603 2.35341 5.48884 2 5 2H3Z" />
<path fill-rule="evenodd" clip-rule="evenodd" d="M6 20C6 18.8954 6.89543 18 8 18C9.10457 18 10 18.8954 10 20C10 21.1046 9.10457 22 8 22C6.89543 22 6 21.1046 6 20Z" />
<path fill-rule="evenodd" clip-rule="evenodd" d="M15 20C15 18.8954 15.8954 18 17 18C18.1046 18 19 18.8954 19 20C19 21.1046 18.1046 22 17 22C15.8954 22 15 21.1046 15 20Z" />
</svg>
