<svg width="20" height="20" viewBox="0 0 20 20" fill="none" xmlns="http://www.w3.org/2000/svg">
<path fill-rule="evenodd" clip-rule="evenodd" d="M9.99988 5C10.5522 5 10.9999 5.44772 10.9999 6V9L13.9999 9C14.5522 9 14.9999 9.44772 14.9999 10C14.9999 10.5523 14.5522 11 13.9999 11H10.9999V14C10.9999 14.5523 10.5522 15 9.99988 15C9.44759 15 8.99988 14.5523 8.99988 14V11H5.99988C5.44759 11 4.99988 10.5523 4.99988 10C4.99988 9.44771 5.44759 9 5.99988 9L8.99988 9V6C8.99988 5.44772 9.44759 5 9.99988 5Z" fill="white"/>
</svg>
